<?xml version="1.0" encoding="UTF-8"?>
<svg id="Layer_1" data-name="Layer 1" xmlns="http://www.w3.org/2000/svg" viewBox="0 0 2800.21 358.09">
  <path d="M51.1,314.08c15.7,14.89,34.41,26.07,55.63,33.24,21.14,7.15,44.01,10.77,67.98,10.77,22.68,0,44.07-3.13,63.58-9.3,19.59-6.2,36.82-15.57,51.22-27.84,14.41-12.28,26.11-27.64,34.78-45.63,8.66-17.98,13.55-38.99,14.53-62.45l.15-3.54h-82.2l-.28,3.09c-2.16,24.02-10.36,42.54-24.38,55.03-14.04,12.52-33.35,18.87-57.4,18.87-27.44,0-49.76-9.03-66.33-26.83-16.64-17.86-25.08-44.93-25.08-80.46s8.35-62.98,24.83-80.68c16.42-17.65,38.82-26.59,66.58-26.59,24.03,0,43.35,6.35,57.4,18.87,14.02,12.51,22.23,31.02,24.38,55.04l.28,3.09h82.2l-.15-3.54c-.98-23.46-5.87-44.46-14.53-62.45-8.68-18-20.38-33.35-34.78-45.63-14.4-12.27-31.64-21.64-51.22-27.84C218.78,3.13,197.39,0,174.71,0c-23.96,0-46.84,3.62-67.98,10.76-21.22,7.19-39.93,18.29-55.61,32.98-15.68,14.7-28.27,33.56-37.4,56.06C4.62,122.25,0,148.91,0,179.04s4.62,56.74,13.72,79c9.13,22.33,21.7,41.18,37.38,56.04Z"/>
  <path d="M453.64,314.1c15.86,14.88,34.74,26.06,56.11,33.23,21.28,7.15,44.23,10.77,68.21,10.77s46.84-3.63,67.98-10.77c21.2-7.16,39.99-18.34,55.85-33.22,15.85-14.87,28.51-33.73,37.63-56.05,9.11-22.29,13.72-48.87,13.72-79s-4.62-56.77-13.72-79.23c-9.12-22.49-21.79-41.35-37.65-56.07-15.85-14.7-34.64-25.79-55.84-32.97-21.16-7.14-44.03-10.76-67.98-10.76s-46.91,3.62-68.21,10.76c-21.38,7.19-40.25,18.28-56.09,32.97-15.85,14.71-28.52,33.57-37.65,56.07-9.1,22.44-13.72,49.1-13.72,79.23s4.62,56.74,13.72,79c9.13,22.33,21.79,41.19,37.63,56.05ZM485.6,179.04c0-35.82,8.51-62.96,25.29-80.66,16.74-17.66,39.3-26.62,67.06-26.62s49.84,8.95,66.59,26.62c16.79,17.71,25.3,44.84,25.3,80.66s-8.52,62.58-25.31,80.44c-16.74,17.81-39.14,26.84-66.58,26.84s-50.33-9.03-67.05-26.84c-16.79-17.86-25.3-44.92-25.3-80.44Z"/>
  <path d="M1006.42,280.49c-10.11,7.39-24.08,11.13-41.55,11.13-21.26,0-38.05-4.62-49.9-13.73-11.83-9.11-18.17-20.75-19.38-35.61l-.25-3.12h-81.18l.07,3.46c.33,17.14,4.26,33.03,11.7,47.22,7.41,14.18,17.77,26.46,30.77,36.49,12.92,9.99,28.75,17.87,47.04,23.42,18.21,5.53,38.78,8.33,61.14,8.33,19.44,0,37.64-2.39,54.11-7.12,16.52-4.74,31.14-11.8,43.45-20.99,12.4-9.25,22.2-20.99,29.15-34.88,6.95-13.88,10.47-29.94,10.47-47.72,0-35.09-10.9-59.7-32.39-73.13-21.09-13.3-44.12-22.68-68.43-27.87-24.28-5.43-47.09-10.76-67.78-15.86-18.99-4.75-28.22-14.53-28.22-29.91,0-10.16,4.26-18.15,13.02-24.43,8.99-6.44,21.11-9.71,36.03-9.71,18.39,0,32.75,3.89,42.67,11.57,9.89,7.64,15.29,17.95,16.5,31.54l.28,3.1h81.18l-.07-3.47c-.34-15.82-3.85-30.63-10.46-44.02-6.61-13.37-16.15-25.09-28.36-34.84-12.14-9.67-26.92-17.24-43.95-22.49-16.96-5.21-36.4-7.85-57.78-7.85-18.84,0-36.4,2.32-52.19,6.88-15.93,4.61-29.76,11.44-41.09,20.32-11.43,8.94-20.42,20.11-26.72,33.2-6.29,13.08-9.48,28.23-9.48,45.03,0,34.78,10.9,59.22,32.39,72.65,10.36,6.49,21.36,12.24,32.71,17.08,11.38,4.88,23.42,8.68,35.77,11.28,11.9,2.5,23.7,5.09,35.07,7.69,11.06,2.53,21.89,5.12,32.22,7.7,18.96,4.44,28.18,14.38,28.18,30.38,0,11.79-4.82,21.05-14.73,28.3Z"/>
  <path d="M1251.69,184.82c0-22.18-.24-42.85-.73-61.44-.21-8.41-.51-16.84-.9-25.24,1.76,5.98,3.61,12.18,5.55,18.61,2.59,8.59,5.51,17.85,8.69,27.51,3.2,9.79,6.9,20.94,11.09,33.52l60.95,173.1h72.19l60.48-173.13c4.17-12.2,7.87-23.12,11.08-32.76,3.21-9.65,6.13-18.74,8.68-27.01,1.9-6.17,3.75-12.29,5.52-18.26-.36,7.91-.65,15.89-.85,23.91-.48,18.55-.72,39.14-.72,61.2v166.05h76.57V7.22h-118.88l-38.84,108.65c-9.92,29.1-18.51,55.61-25.54,78.78-5.34,17.61-9.89,34.77-13.59,51.19-3.7-16.43-8.25-33.58-13.59-51.19-7.01-23.11-15.6-49.62-25.55-78.84l-39.31-108.59h-118.87v343.65h76.58v-166.05Z"/>
  <path d="M1859.42,284.46h132.83l23.58,66.41h82.36L1970.54,7.22h-89.42l-127.64,343.65h82.36l23.58-66.41ZM1925.83,82.84c5.3,19.9,11.32,40.18,17.94,60.45,7.72,23.62,15.94,48.24,24.47,73.27h-84.82c8.69-25.52,16.91-50.15,24.47-73.27,6.62-20.25,12.63-40.52,17.95-60.45Z"/>
  <path d="M2704.58,280.49c-10.11,7.39-24.09,11.13-41.55,11.13-21.26,0-38.05-4.62-49.9-13.73-11.83-9.11-18.17-20.75-19.38-35.61l-.25-3.12h-81.18l.07,3.46c.33,17.14,4.26,33.03,11.7,47.22,7.41,14.18,17.76,26.46,30.77,36.49,12.92,9.99,28.75,17.87,47.04,23.42,18.21,5.53,38.78,8.33,61.14,8.33,19.44,0,37.64-2.39,54.11-7.12,16.52-4.74,31.14-11.8,43.45-20.99,12.4-9.25,22.2-20.99,29.15-34.88,6.95-13.88,10.47-29.94,10.47-47.72,0-35.09-10.9-59.7-32.39-73.13-21.09-13.3-44.13-22.68-68.43-27.87-24.28-5.43-47.09-10.76-67.78-15.86-18.99-4.75-28.22-14.53-28.22-29.91,0-10.16,4.26-18.15,13.02-24.43,8.99-6.44,21.11-9.71,36.03-9.71,18.39,0,32.75,3.89,42.67,11.57,9.89,7.64,15.29,17.95,16.5,31.54l.28,3.1h81.18l-.07-3.47c-.34-15.82-3.86-30.63-10.46-44.02-6.61-13.37-16.15-25.09-28.36-34.84-12.14-9.67-26.92-17.24-43.95-22.49-16.96-5.21-36.4-7.85-57.78-7.85-18.84,0-36.4,2.32-52.19,6.88-15.93,4.61-29.76,11.44-41.09,20.32-11.43,8.94-20.42,20.11-26.72,33.2-6.29,13.08-9.48,28.23-9.48,45.03,0,34.78,10.9,59.22,32.4,72.65,10.36,6.49,21.36,12.24,32.71,17.08,11.38,4.88,23.42,8.68,35.77,11.28,11.9,2.51,23.7,5.09,35.07,7.69,11.07,2.53,21.89,5.12,32.22,7.7,18.96,4.44,28.18,14.38,28.18,30.38,0,11.79-4.82,21.05-14.72,28.3Z"/>
</svg>