<svg width="2801" height="359" viewBox="0 0 2801 359" fill="none" xmlns="http://www.w3.org/2000/svg">
<g clip-path="url(#clip0_429_2)">
<path d="M174.71 1C197.299 1 218.586 4.11789 237.988 10.2539V10.2529C256.844 16.2235 273.499 25.1458 287.514 36.7676L288.861 37.9014C303.149 50.0859 314.766 65.3218 323.389 83.2031V83.2041C331.98 101.052 336.846 121.914 337.821 145.262V145.263L337.927 147.76H257.684L257.486 145.58C255.32 121.381 247.034 102.606 232.775 89.8838L232.103 89.292C217.883 76.9606 198.537 70.7598 174.71 70.7598C147.156 70.7598 124.747 79.5041 108.183 96.8369L107.397 97.6689C90.6776 115.627 82.2998 143.369 82.2998 179.03C82.2998 214.699 90.7715 242.058 107.648 260.172V260.171C124.433 278.201 147.032 287.32 174.71 287.32C198.557 287.32 217.893 281.119 232.103 268.788L232.775 268.196C246.812 255.692 255.05 237.293 257.38 213.64L257.486 212.51L257.684 210.33H337.927L337.821 212.828C336.846 236.176 331.98 257.048 323.389 274.886C314.776 292.758 303.159 308.004 288.861 320.188C275.018 331.984 258.528 341.089 239.807 347.25L237.988 347.837C218.586 353.973 197.298 357.09 174.71 357.09C150.841 357.09 128.08 353.485 107.051 346.373H107.05C86.6212 339.47 68.5434 328.831 53.2588 314.729L51.7881 313.354C36.2226 298.603 23.7282 279.875 14.6455 257.661C5.60546 235.548 1 209.072 1 179.04C1 149.478 5.46291 123.311 14.2266 101.225L14.6465 100.176C23.4452 78.4923 35.4632 60.2333 50.3535 45.8496L51.8037 44.4697C67.3753 29.8813 85.9601 18.8532 107.051 11.707L107.05 11.7061C128.079 4.60344 150.851 1 174.71 1Z" stroke="black" stroke-width="2"/>
<path d="M577.95 1.03003C601.799 1.03003 624.56 4.63361 645.609 11.7361V11.7371C666.68 18.8735 685.347 29.8925 701.09 44.4929C716.338 58.6454 728.632 76.6681 737.633 98.1189L738.493 100.206C747.534 122.522 752.14 149.029 752.14 179.06C752.14 209.092 747.544 235.538 738.494 257.681C729.422 279.883 716.84 298.619 701.106 313.381C685.354 328.16 666.688 339.267 645.62 346.383C624.59 353.485 601.839 357.1 577.96 357.1C554.827 357.1 532.668 353.717 512.058 347.039L510.068 346.383V346.382C488.829 339.256 470.075 328.149 454.324 313.371L453.619 312.709L453.613 312.714C438.217 298.066 425.871 279.561 416.926 257.681C407.885 235.568 403.28 209.092 403.28 179.06C403.28 149.029 407.885 122.501 416.927 100.206C426.008 77.825 438.6 59.0919 454.33 44.4929C470.061 29.9037 488.807 18.8849 510.058 11.738L510.057 11.7371C531.248 4.63364 554.101 1.03004 577.95 1.03003ZM577.95 70.7605C550.395 70.7605 527.835 79.5239 510.964 96.8601L510.164 97.6921C493.14 115.649 484.6 143.083 484.6 179.04C484.6 214.7 493.142 242.05 510.171 260.164V260.165C527.108 278.206 550.277 287.32 577.95 287.32C605.629 287.32 628.305 278.202 645.259 260.165C662.287 242.051 670.84 215.002 670.84 179.04C670.84 143.082 662.299 115.659 645.265 97.6921C628.303 79.7979 605.948 70.7605 577.95 70.7605Z" stroke="black" stroke-width="2"/>
<path d="M954.3 1C975.599 1 994.938 3.62953 1011.78 8.80469V8.80566C1028.18 13.861 1042.46 21.0726 1054.27 30.2295L1055.41 31.1221C1067.51 40.7847 1076.95 52.3905 1083.49 65.6221V65.623C1089.83 78.4594 1093.29 92.6229 1093.81 107.754L1093.85 109.222L1093.9 111.67H1014.65L1014.46 109.48C1013.22 95.6411 1007.7 85.0649 997.571 77.2383C987.411 69.3727 972.801 65.46 954.29 65.46C939.703 65.46 927.662 68.5566 918.551 74.748L917.677 75.3574C908.675 81.8116 904.24 90.0949 904.24 100.6C904.24 108.508 906.621 115.055 911.502 120.228C916.36 125.377 923.616 129.079 933.218 131.48H933.22C953.919 136.582 976.736 141.914 1001.02 147.346L1001.03 147.348C1025.23 152.513 1048.15 161.849 1069.14 175.086L1069.14 175.088C1090.23 188.269 1101.06 212.478 1101.06 247.37C1101.06 264.466 1097.78 279.925 1091.33 293.35L1090.7 294.643C1083.82 308.394 1074.12 320.012 1061.84 329.168V329.169C1049.64 338.278 1035.13 345.288 1018.71 349.999H1018.71C1002.34 354.7 984.239 357.08 964.88 357.08C942.601 357.08 922.131 354.29 904.03 348.793C885.837 343.272 870.12 335.443 857.311 325.539V325.538L856.11 324.6C843.783 314.832 833.928 302.986 826.816 289.377L826.815 289.376L826.135 288.054C819.213 274.348 815.546 259.066 815.229 242.601V242.6L815.18 240.16H894.417L894.594 242.36V242.361C895.807 257.266 902.106 269.028 913.799 278.245L914.36 278.683C926.445 287.973 943.48 292.62 964.87 292.62C981.93 292.62 995.798 289.08 1006.05 281.981L1006.07 282.016L1007.02 281.317C1017.18 273.888 1022.16 264.334 1022.16 252.21C1022.16 244.004 1019.79 237.261 1014.91 232.005C1010.06 226.771 1002.81 223.106 993.221 220.859H993.222C982.886 218.278 972.049 215.687 960.983 213.155C949.607 210.554 937.801 207.962 925.895 205.461H925.894C913.608 202.874 901.632 199.095 890.314 194.241L890.312 194.24L888.197 193.326C877.643 188.702 867.412 183.291 857.741 177.232H857.74C836.646 164.05 825.82 140.007 825.82 105.43C825.82 88.7566 828.986 73.7588 835.201 60.834C841.24 48.2869 849.774 37.5253 860.583 28.8232L861.636 27.9873C872.501 19.4723 885.708 12.846 900.911 8.27637L902.387 7.84082C918.075 3.31031 935.54 1.00003 954.3 1Z" stroke="black" stroke-width="2"/>
<path d="M1293.29 8.21997L1332.35 116.131V116.132C1341.68 143.518 1349.81 168.52 1356.56 190.57L1357.89 194.941C1363.23 212.529 1367.77 229.656 1371.46 246.06H1373.42C1377.11 229.665 1381.65 212.529 1386.99 194.941C1394.01 171.787 1402.6 145.293 1412.51 116.206L1451.11 8.21997H1568.29V349.88H1493.72V184.83C1493.72 162.777 1493.96 142.195 1494.44 123.656V123.655C1494.64 115.642 1494.93 107.669 1495.29 99.7659L1493.33 99.4358C1492 103.911 1490.63 108.47 1489.23 113.072L1487.81 117.686C1485.59 124.915 1483.07 132.772 1480.33 141.084L1479.14 144.674C1476.73 151.901 1474.05 159.849 1471.1 168.518L1468.06 177.427L1407.82 349.88H1337.05L1276.33 177.448C1272.15 164.875 1268.45 153.732 1265.25 143.949L1265.25 143.948L1264.07 140.347C1261.35 131.992 1258.83 123.97 1256.57 116.461L1255.13 111.683C1253.71 106.948 1252.34 102.341 1251.02 97.8577L1249.06 98.1868C1249.45 106.579 1249.75 115.002 1249.96 123.405V123.406C1250.45 141.986 1250.69 162.647 1250.69 184.82V185.82H1250.7V349.87H1176.12V8.21997H1293.29Z" stroke="black" stroke-width="2"/>
<path d="M1969.85 8.21997L2096.75 349.87H2016.54L1993.19 284.125L1992.96 283.46H1858.71L1858.48 284.125L1835.13 349.87H1754.92L1881.81 8.21997H1969.85ZM1924.8 82.8567C1919.5 102.68 1913.52 122.839 1906.94 142.979C1899.38 166.095 1891.16 190.721 1882.47 216.238L1882.02 217.56H1969.64L1969.19 216.238C1960.66 191.211 1952.44 166.596 1944.72 142.98C1938.14 122.82 1932.15 102.651 1926.87 82.8577L1927.14 81.8401H1924.53L1924.8 82.8567Z" stroke="black" stroke-width="2"/>
<path d="M2652.46 1C2673.76 1 2693.1 3.62951 2709.95 8.80469V8.80566C2726.34 13.861 2740.62 21.0725 2752.43 30.2295L2753.57 31.1221C2765.67 40.7845 2775.11 52.3899 2781.65 65.6211V65.6221C2787.98 78.4591 2791.45 92.6232 2791.97 107.754L2792.01 109.222L2792.06 111.67H2712.81L2712.62 109.48C2711.38 95.6411 2705.86 85.0649 2695.73 77.2383C2685.57 69.3727 2670.96 65.46 2652.45 65.46C2637.86 65.46 2625.82 68.5563 2616.71 74.748L2615.84 75.3574C2606.83 81.8116 2602.4 90.0949 2602.4 100.6C2602.4 108.508 2604.78 115.055 2609.66 120.228C2614.52 125.377 2621.78 129.079 2631.38 131.48H2631.38C2652.08 136.583 2674.9 141.914 2699.18 147.346L2699.19 147.348C2723.38 152.513 2746.31 161.849 2767.3 175.086L2767.3 175.088C2788.39 188.269 2799.22 212.478 2799.22 247.37C2799.22 265.018 2795.73 280.921 2788.86 294.643H2788.86C2781.97 308.394 2772.28 320.012 2760 329.168V329.169C2747.8 338.278 2733.29 345.288 2716.87 349.999C2700.5 354.7 2682.4 357.08 2663.04 357.08C2640.76 357.08 2620.29 354.29 2602.19 348.793C2584 343.272 2568.28 335.443 2555.47 325.539L2555.47 325.538L2554.27 324.6C2541.93 314.832 2532.09 302.986 2524.98 289.377L2524.98 289.376L2524.3 288.054C2517.37 274.348 2513.71 259.066 2513.39 242.601V242.6L2513.34 240.16H2592.58L2592.75 242.36V242.361C2593.99 257.503 2600.47 269.401 2612.52 278.683H2612.52C2624.61 287.973 2641.64 292.62 2663.03 292.62C2680.3 292.62 2694.31 288.988 2704.6 281.705L2704.64 281.729L2705.2 281.316C2715.35 273.887 2720.33 264.334 2720.33 252.21C2720.33 244.004 2717.96 237.261 2713.08 232.005C2708.23 226.772 2700.98 223.106 2691.39 220.859H2691.39C2681.06 218.278 2670.23 215.687 2659.15 213.155C2649.2 210.879 2638.92 208.618 2628.53 206.406L2624.07 205.462C2611.78 202.875 2599.8 199.095 2588.48 194.241L2588.48 194.24L2586.37 193.326C2575.81 188.702 2565.58 183.291 2555.91 177.232L2555.91 177.231L2554.93 176.606C2534.47 163.296 2523.98 139.467 2523.98 105.43C2523.98 88.7565 2527.15 73.7588 2533.36 60.834C2539.59 47.8822 2548.49 36.8326 2559.8 27.9873H2559.8C2570.66 19.4725 2583.87 12.846 2599.07 8.27637L2600.55 7.84082C2616.24 3.31031 2633.7 1.00002 2652.46 1Z" stroke="black" stroke-width="2"/>
</g>
<defs>
<clipPath id="clip0_429_2">
<rect width="2800.21" height="358.09" fill="white"/>
</clipPath>
</defs>
</svg>
